
        <svg xmlns="http://www.w3.org/2000/svg" xmlns:xlink="http://www.w3.org/1999/xlink" version="1.1" width="3162.1586353637736" height="786.4041357441153" viewBox="0 0 3162.1586353637736 786.4041357441153">
			
			<g transform="scale(8.107931768188683) translate(10, 10)">
				<defs id="SvgjsDefs3312"><linearGradient id="SvgjsLinearGradient3317"><stop id="SvgjsStop3318" stop-color="#00ddff" offset="0"/><stop id="SvgjsStop3319" stop-color="#ff00d4" offset="1"/></linearGradient><linearGradient id="SvgjsLinearGradient3320"><stop id="SvgjsStop3321" stop-color="#00ddff" offset="0"/><stop id="SvgjsStop3322" stop-color="#ff00d4" offset="1"/></linearGradient></defs><g id="SvgjsG3313" featureKey="nRdZyp-0" transform="matrix(0.9877221685766276,0,0,0.9877221685766276,-10.890625595298326,-10.890624653333063)" fill="#fff"><path xmlns="http://www.w3.org/2000/svg" d="M50,11.026c-21.525,0-38.974,17.449-38.974,38.974c0,12.283,5.688,23.232,14.567,30.376l-14.567,8.599H50  c21.525,0,38.975-17.449,38.975-38.975C88.975,28.475,71.523,11.026,50,11.026z M49.999,85.507H23.961l8.242-4.786  C21.617,74.574,14.493,63.123,14.493,50c0-19.61,15.896-35.506,35.506-35.506c19.61,0,35.507,15.896,35.507,35.506  C85.506,69.609,69.609,85.507,49.999,85.507z M38.165,60.521c0.581,0.581,0.581,1.521,0,2.103c-0.581,0.581-1.521,0.581-2.102,0  L24.516,51.076c-0.581-0.581-0.581-1.521,0-2.102l11.547-11.547c0.581-0.581,1.522-0.581,2.102,0c0.581,0.58,0.581,1.521,0,2.102  L27.669,50.025L38.165,60.521 M61.835,39.529c-0.581-0.581-0.581-1.521,0-2.102s1.521-0.581,2.103,0l11.547,11.547  c0.581,0.581,0.581,1.522,0,2.102L63.938,62.623c-0.581,0.581-1.522,0.581-2.103,0c-0.581-0.58-0.581-1.521,0-2.102l10.496-10.496  L61.835,39.529 M44.498,63.563c-0.206,0-0.415-0.044-0.615-0.134c-0.747-0.342-1.077-1.223-0.737-1.97l11.004-24.153  c0.34-0.747,1.221-1.077,1.968-0.736c0.748,0.34,1.077,1.221,0.737,1.968L45.851,62.692C45.602,63.24,45.062,63.563,44.498,63.563"/></g><g id="SvgjsG3314" featureKey="Q4qmbg-0" transform="matrix(4.223295296516135,0,0,4.223295296516135,94.97282019094342,-14.623271434844817)" fill="#fff"><path d="M3.48 13.24 c0 1.18 5 0.62 5 3.74 c0 2.04 -1.8 3.18 -4.04 3.18 c-1.42 0 -2.84 -0.7 -3.96 -1.82 l1.94 -1.94 c0.56 0.68 1.36 1.2 2.02 1.26 s1.22 -0.22 1.32 -0.52 c0.24 -0.76 -1.14 -0.8 -1.56 -0.92 c-1.58 -0.48 -3.42 -1.14 -3.42 -3.1 c0 -2.34 2.44 -3.14 3.66 -3.14 c1.4 0 2.82 0.64 3.96 1.8 l-1.92 1.92 c-0.52 -0.68 -1.42 -1.22 -2.04 -1.22 c-0.32 0 -0.96 0.12 -0.96 0.76 z M16.68389583333333 16.46 l2.08 1.88 c-1.12 1.24 -2.58 1.82 -4.14 1.82 c-2.88 0 -5.2 -2.16 -5.2 -5.08 s2.32 -5.1 5.2 -5.1 c1.56 0 3.02 0.58 4.14 1.82 l-2.08 1.88 c-0.44 -1.02 -1.4 -1.26 -2.06 -1.26 c-1.22 0 -2.24 1.08 -2.24 2.66 c0 1.56 1.02 2.64 2.24 2.64 c0.66 0 1.64 -0.18 2.06 -1.26 z M24.747791666666664 12.42 c-1.22 0 -2.24 1.08 -2.24 2.66 c0 1.56 1.02 2.64 2.24 2.64 c1.24 0 2.26 -1.08 2.26 -2.64 c0 -1.58 -1.02 -2.66 -2.26 -2.66 z M24.747791666666664 9.98 c2.9 0 5.22 2.18 5.22 5.1 s-2.32 5.08 -5.22 5.08 c-2.88 0 -5.2 -2.16 -5.2 -5.08 s2.32 -5.1 5.2 -5.1 z M34.05168749999999 5.119999999999999 l0 14.88 l-2.98 0 l0 -14.88 l2.98 0 z M38.17558333333333 13.04 l-2.2 -1.26 c1.1 -1.24 2.58 -1.82 4.12 -1.82 c2.96 0 4.16 1.62 4.16 3.14 l0 6.9 l-2.96 0 l0 -0.7 c-0.46 0.48 -1.28 0.84 -2.2 0.84 c-2.7 0 -3.74 -1.2 -3.74 -3.04 c0 -2.08 1.68 -3.48 4.4 -3.48 l1.54 0 c0 -0.74 -0.56 -1.22 -1.4 -1.22 c-0.86 0 -1.28 0.16 -1.72 0.64 z M41.29558333333333 16.740000000000002 l0 -0.88 l-1.74 0 c-0.78 0 -1.36 0.54 -1.24 1.3 c0.08 0.54 0.56 0.76 1.24 0.76 c1.3 0 1.74 -0.74 1.74 -1.18 z M51.29947916666666 9.98 c2.9 0 4.82 2.18 4.82 5.1 s-2.12 5.08 -5.02 5.08 c-0.64 0 -1.72 -0.36 -2.04 -0.82 l0 0.66 l-2.96 0 l0 -14.52 l2.96 0 l0 5.34 c0.34 -0.5 1.62 -0.84 2.24 -0.84 z M50.89947916666666 17.92 c1.24 0 2.26 -1.28 2.26 -2.84 c0 -1.58 -1.02 -2.86 -2.26 -2.86 c-1.36 0 -2.24 1.54 -2.24 2.86 s0.9 2.84 2.24 2.84 z M60.12337499999999 13.24 c0 1.18 5 0.62 5 3.74 c0 2.04 -1.8 3.18 -4.04 3.18 c-1.42 0 -2.84 -0.7 -3.96 -1.82 l1.94 -1.94 c0.56 0.68 1.36 1.2 2.02 1.26 s1.22 -0.22 1.32 -0.52 c0.24 -0.76 -1.14 -0.8 -1.56 -0.92 c-1.58 -0.48 -3.42 -1.14 -3.42 -3.1 c0 -2.34 2.44 -3.14 3.66 -3.14 c1.4 0 2.82 0.64 3.96 1.8 l-1.92 1.92 c-0.52 -0.68 -1.42 -1.22 -2.04 -1.22 c-0.32 0 -0.96 0.12 -0.96 0.76 z"/></g>
			</g>
		</svg>
	